<?xml version="1.0" encoding="UTF-8" standalone="no" ?>
<!DOCTYPE svg PUBLIC "-//W3C//DTD SVG 1.1//EN" "http://www.w3.org/Graphics/SVG/1.1/DTD/svg11.dtd">
<svg xmlns="http://www.w3.org/2000/svg" xmlns:xlink="http://www.w3.org/1999/xlink" version="1.1" width="1080" height="1080" viewBox="0 0 1080 1080" xml:space="preserve">
<desc>Created with Fabric.js 4.2.0</desc>
<defs>
</defs>
<g transform="matrix(1 0 0 1 540 540)" id="3d721505-5f46-4586-918a-d71df21f7dd7"  >
</g>
<g transform="matrix(1 0 0 1 540 540)" id="f871cb1f-1822-4e83-be59-04835e58da8d"  >
<rect style="stroke: none; stroke-width: 1; stroke-dasharray: none; stroke-linecap: butt; stroke-dashoffset: 0; stroke-linejoin: miter; stroke-miterlimit: 4; fill: rgb(255,255,255); fill-rule: nonzero; opacity: 1;" vector-effect="non-scaling-stroke"  x="-540" y="-540" rx="0" ry="0" width="1080" height="1080" />
</g>
<g transform="matrix(36 0 0 36 627.19 540)"  >
<path style="stroke: rgb(0,0,0); stroke-width: 0; stroke-dasharray: none; stroke-linecap: butt; stroke-dashoffset: 0; stroke-linejoin: miter; stroke-miterlimit: 4; fill: rgb(252,127,127); fill-rule: nonzero; opacity: 1;" vector-effect="non-scaling-stroke"  transform=" translate(-8, -8)" d="M 8 2 C 4.686291501015239 2 2 4.686291501015239 2 8 C 2 11.313708498984761 4.686291501015239 14 8 14 C 11.313708498984761 14 14 11.313708498984761 14 8 C 14 4.686291501015239 11.313708498984761 2 8 2 z M 8 4 C 10.209138999323173 4 12 5.790861000676825 12 7.999999999999999 C 12 10.209138999323173 10.209138999323173 12 8 12 C 5.790861000676826 12 4 10.209138999323173 4 8 C 4 5.790861000676826 5.790861000676826 4 8 4 z" stroke-linecap="round" />
</g>
<g transform="matrix(1 0 0 1 540 540)"  >
<path style="stroke: rgb(0,0,0); stroke-width: 0; stroke-dasharray: none; stroke-linecap: butt; stroke-dashoffset: 0; stroke-linejoin: miter; stroke-miterlimit: 4; fill: rgb(142,239,151); fill-rule: nonzero; opacity: 1;" vector-effect="non-scaling-stroke"  transform=" translate(-8, -8)" d="M 8 2 C 4.686291501015239 2 2 4.686291501015239 2 8 C 2 11.313708498984761 4.686291501015239 14 8 14 C 11.313708498984761 14 14 11.313708498984761 14 8 C 14 4.686291501015239 11.313708498984761 2 8 2 z M 8 4 C 10.209138999323173 4 12 5.790861000676825 12 7.999999999999999 C 12 10.209138999323173 10.209138999323173 12 8 12 C 5.790861000676826 12 4 10.209138999323173 4 8 C 4 5.790861000676826 5.790861000676826 4 8 4 z" stroke-linecap="round" />
</g>
<g transform="matrix(1 0 0 1 540 540)"  >
<path style="stroke: rgb(0,0,0); stroke-width: 0; stroke-dasharray: none; stroke-linecap: butt; stroke-dashoffset: 0; stroke-linejoin: miter; stroke-miterlimit: 4; fill: rgb(142,239,151); fill-rule: nonzero; opacity: 1;" vector-effect="non-scaling-stroke"  transform=" translate(-8, -8)" d="M 8 2 C 4.686291501015239 2 2 4.686291501015239 2 8 C 2 11.313708498984761 4.686291501015239 14 8 14 C 11.313708498984761 14 14 11.313708498984761 14 8 C 14 4.686291501015239 11.313708498984761 2 8 2 z M 8 4 C 10.209138999323173 4 12 5.790861000676825 12 7.999999999999999 C 12 10.209138999323173 10.209138999323173 12 8 12 C 5.790861000676826 12 4 10.209138999323173 4 8 C 4 5.790861000676826 5.790861000676826 4 8 4 z" stroke-linecap="round" />
</g>
<g transform="matrix(36 0 0 36 439.62 540)"  >
<path style="stroke: rgb(0,0,0); stroke-width: 0; stroke-dasharray: none; stroke-linecap: butt; stroke-dashoffset: 0; stroke-linejoin: miter; stroke-miterlimit: 4; fill: rgb(142,239,151); fill-rule: nonzero; opacity: 1;" vector-effect="non-scaling-stroke"  transform=" translate(-8, -8)" d="M 8 2 C 4.686291501015239 2 2 4.686291501015239 2 8 C 2 11.313708498984761 4.686291501015239 14 8 14 C 11.313708498984761 14 14 11.313708498984761 14 8 C 14 4.686291501015239 11.313708498984761 2 8 2 z M 8 4 C 10.209138999323173 4 12 5.790861000676825 12 7.999999999999999 C 12 10.209138999323173 10.209138999323173 12 8 12 C 5.790861000676826 12 4 10.209138999323173 4 8 C 4 5.790861000676826 5.790861000676826 4 8 4 z" stroke-linecap="round" />
</g>
<g transform="matrix(-1.83 -1.83 1.83 -1.83 505.19 540)"  >
<path style="stroke: none; stroke-width: 1; stroke-dasharray: none; stroke-linecap: butt; stroke-dashoffset: 0; stroke-linejoin: miter; stroke-miterlimit: 4; fill: rgb(252,127,127); fill-rule: nonzero; opacity: 1;" vector-effect="non-scaling-stroke"  transform=" translate(-50, -50)" d="M 20.339 27.172 C 16.584999999999997 27.172 13.558999999999997 24.092 13.558999999999997 20.339 C 13.558999999999997 16.584999999999997 16.584999999999997 13.561 20.339 13.561 C 38.599000000000004 13.561 55.126 20.954 67.114 32.887 C 79.045 44.873000000000005 86.43900000000001 61.397999999999996 86.43900000000001 79.662 C 86.43900000000001 83.41300000000001 83.414 86.43900000000001 79.662 86.43900000000001 C 75.906 86.43900000000001 72.82700000000001 83.41300000000001 72.82700000000001 79.662 C 72.82700000000001 65.153 67.00200000000001 52.04600000000001 57.48000000000001 42.52 C 47.956 33.055 34.848 27.172 20.339 27.172 z" stroke-linecap="round" />
</g>
<g transform="matrix(-1.97 -1.97 1.97 -1.97 478 540.12)"  >
<path style="stroke: none; stroke-width: 1; stroke-dasharray: none; stroke-linecap: butt; stroke-dashoffset: 0; stroke-linejoin: miter; stroke-miterlimit: 4; fill: rgb(252,127,127); fill-rule: nonzero; opacity: 1;" vector-effect="non-scaling-stroke"  transform=" translate(-50, -50)" d="M 20.339 27.172 C 16.584999999999997 27.172 13.558999999999997 24.092 13.558999999999997 20.339 C 13.558999999999997 16.584999999999997 16.584999999999997 13.561 20.339 13.561 C 38.599000000000004 13.561 55.126 20.954 67.114 32.887 C 79.045 44.873000000000005 86.43900000000001 61.397999999999996 86.43900000000001 79.662 C 86.43900000000001 83.41300000000001 83.414 86.43900000000001 79.662 86.43900000000001 C 75.906 86.43900000000001 72.82700000000001 83.41300000000001 72.82700000000001 79.662 C 72.82700000000001 65.153 67.00200000000001 52.04600000000001 57.48000000000001 42.52 C 47.956 33.055 34.848 27.172 20.339 27.172 z" stroke-linecap="round" />
</g>
<g transform="matrix(0.26 -2.77 2.77 0.26 540 419.06)"  >
<path style="stroke: none; stroke-width: 1; stroke-dasharray: none; stroke-linecap: butt; stroke-dashoffset: 0; stroke-linejoin: miter; stroke-miterlimit: 4; fill: rgb(252,127,127); fill-rule: nonzero; opacity: 1;" vector-effect="non-scaling-stroke"  transform=" translate(-50, -50)" d="M 20.339 27.172 C 16.584999999999997 27.172 13.558999999999997 24.092 13.558999999999997 20.339 C 13.558999999999997 16.584999999999997 16.584999999999997 13.561 20.339 13.561 C 38.599000000000004 13.561 55.126 20.954 67.114 32.887 C 79.045 44.873000000000005 86.43900000000001 61.397999999999996 86.43900000000001 79.662 C 86.43900000000001 83.41300000000001 83.414 86.43900000000001 79.662 86.43900000000001 C 75.906 86.43900000000001 72.82700000000001 83.41300000000001 72.82700000000001 79.662 C 72.82700000000001 65.153 67.00200000000001 52.04600000000001 57.48000000000001 42.52 C 47.956 33.055 34.848 27.172 20.339 27.172 z" stroke-linecap="round" />
</g>
<g transform="matrix(0.88 -2.64 2.64 0.88 578.1 435.44)"  >
<path style="stroke: none; stroke-width: 1; stroke-dasharray: none; stroke-linecap: butt; stroke-dashoffset: 0; stroke-linejoin: miter; stroke-miterlimit: 4; fill: rgb(252,127,127); fill-rule: nonzero; opacity: 1;" vector-effect="non-scaling-stroke"  transform=" translate(-50, -50)" d="M 20.339 27.172 C 16.584999999999997 27.172 13.558999999999997 24.092 13.558999999999997 20.339 C 13.558999999999997 16.584999999999997 16.584999999999997 13.561 20.339 13.561 C 38.599000000000004 13.561 55.126 20.954 67.114 32.887 C 79.045 44.873000000000005 86.43900000000001 61.397999999999996 86.43900000000001 79.662 C 86.43900000000001 83.41300000000001 83.414 86.43900000000001 79.662 86.43900000000001 C 75.906 86.43900000000001 72.82700000000001 83.41300000000001 72.82700000000001 79.662 C 72.82700000000001 65.153 67.00200000000001 52.04600000000001 57.48000000000001 42.52 C 47.956 33.055 34.848 27.172 20.339 27.172 z" stroke-linecap="round" />
</g>
<g transform="matrix(6.34 6.34 -6.34 6.34 745.07 540.94)"  >
<path style="stroke: none; stroke-width: 1; stroke-dasharray: none; stroke-linecap: butt; stroke-dashoffset: 0; stroke-linejoin: miter; stroke-miterlimit: 4; fill: rgb(45,192,194); fill-rule: nonzero; opacity: 1;" vector-effect="non-scaling-stroke"  transform=" translate(-66.23, -33.91)" d="M 85.043 24.715 L 74.385 14.609 C 72.232 12.565999999999999 68.808 12.565999999999999 66.87400000000001 14.609 L 46.995 35.595 C 45.062 37.638 45.229 41.004999999999995 47.436 43.104 L 49.122 44.702 L 53.572 40.338 C 53.013000000000005 39.259 53.128 37.897 54.007000000000005 36.975 L 68.64 21.568 C 69.747 20.408 71.623 20.353 72.784 21.458000000000002 L 78.305 26.703000000000003 C 79.46600000000001 27.808000000000003 79.519 29.686000000000003 78.415 30.845000000000002 L 63.838 46.252 C 62.732 47.411 60.856 47.466 59.694 46.362 L 59.173 45.873000000000005 L 54.839 50.121 L 58.039 53.153000000000006 C 60.245000000000005 55.25200000000001 63.616 55.25200000000001 65.602 53.209 L 85.42500000000001 32.225 C 87.417 30.183 87.249 26.758 85.043 24.715 z" stroke-linecap="round" />
</g>
<g transform="matrix(6.34 6.34 -6.34 6.34 596.54 536.05)"  >
<path style="stroke: none; stroke-width: 1; stroke-dasharray: none; stroke-linecap: butt; stroke-dashoffset: 0; stroke-linejoin: miter; stroke-miterlimit: 4; fill: rgb(45,192,194); fill-rule: nonzero; opacity: 1;" vector-effect="non-scaling-stroke"  transform=" translate(-54.15, -45.23)" d="M 54.117 41.116 C 53.876999999999995 40.89 53.717999999999996 40.618 53.571999999999996 40.338 L 49.12199999999999 44.702 L 54.83999999999999 50.122 L 59.17399999999999 45.874 L 54.117 41.116 z" stroke-linecap="round" />
</g>
<g transform="matrix(6.34 6.34 -6.34 6.34 673.34 537.02)"  >
<path style="stroke: none; stroke-width: 1; stroke-dasharray: none; stroke-linecap: butt; stroke-dashoffset: 0; stroke-linejoin: miter; stroke-miterlimit: 4; fill: rgb(45,192,194); fill-rule: nonzero; opacity: 1;" vector-effect="non-scaling-stroke"  transform=" translate(-60.28, -39.25)" d="M 59.174 45.874 L 66.079 39.113 C 67.27 37.946 67.28899999999999 36.035 66.125 34.844 L 64.839 33.533 C 63.671 32.34 61.760999999999996 32.322 60.57 33.488 L 53.572 40.339 C 53.718 40.619 53.877 40.891 54.117000000000004 41.117 L 59.174 45.874 z" stroke-linecap="round" />
</g>
<g transform="matrix(4.69 0.54 -0.54 4.69 729.34 460.86)"  >
<path style="stroke: none; stroke-width: 1; stroke-dasharray: none; stroke-linecap: butt; stroke-dashoffset: 0; stroke-linejoin: miter; stroke-miterlimit: 4; fill: rgb(252,127,127); fill-rule: nonzero; opacity: 1;" vector-effect="non-scaling-stroke"  transform=" translate(-39.33, -60.7)" d="M 20.339 48.515 C 16.584999999999997 48.515 13.558999999999997 45.491 13.558999999999997 41.737 C 13.558999999999997 37.984 16.584999999999997 34.96 20.339 34.96 C 32.719 34.96 43.866 39.945 51.988 48.012 C 60.054 56.134 65.095 67.28 65.095 79.663 C 65.095 83.414 62.015 86.44 58.263 86.44 C 54.507999999999996 86.44 51.485 83.414 51.485 79.663 C 51.485 71.036 48.010999999999996 63.306 42.353 57.646 C 36.753 52.046 28.966 48.515 20.339 48.515 z" stroke-linecap="round" />
</g>
<g transform="matrix(36 0 0 36 449.62 550)"  >
<path style="stroke: rgb(0,0,0); stroke-width: 0; stroke-dasharray: none; stroke-linecap: butt; stroke-dashoffset: 0; stroke-linejoin: miter; stroke-miterlimit: 4; fill: rgb(142,239,151); fill-rule: nonzero; opacity: 1;" vector-effect="non-scaling-stroke"  transform=" translate(-8, -8)" d="M 8 2 C 4.686291501015239 2 2 4.686291501015239 2 8 C 2 11.313708498984761 4.686291501015239 14 8 14 C 11.313708498984761 14 14 11.313708498984761 14 8 C 14 4.686291501015239 11.313708498984761 2 8 2 z M 8 4 C 10.209138999323173 4 12 5.790861000676825 12 7.999999999999999 C 12 10.209138999323173 10.209138999323173 12 8 12 C 5.790861000676826 12 4 10.209138999323173 4 8 C 4 5.790861000676826 5.790861000676826 4 8 4 z" stroke-linecap="round" />
</g>
<g transform="matrix(6.34 6.34 -6.34 6.34 334.97 538.89)"  >
<path style="stroke: none; stroke-width: 1; stroke-dasharray: none; stroke-linecap: butt; stroke-dashoffset: 0; stroke-linejoin: miter; stroke-miterlimit: 4; fill: rgb(45,192,194); fill-rule: nonzero; opacity: 1;" vector-effect="non-scaling-stroke"  transform=" translate(-33.75, -66.08)" d="M 45.945 62.984 L 31.312 78.445 C 30.208000000000002 79.60499999999999 28.386000000000003 79.66099999999999 27.226 78.55499999999999 L 21.648 73.30999999999999 C 20.491 72.20499999999998 20.434 70.32699999999998 21.538 69.16799999999999 L 36.17 53.706 C 37.228 52.597 38.978 52.53 40.146 53.491 L 44.491 49.235 L 41.915 46.804 C 39.762 44.705 36.336999999999996 44.705 34.403999999999996 46.804 L 14.523999999999997 67.732 C 12.590999999999998 69.831 12.758999999999997 73.2 14.964999999999998 75.298 L 25.568999999999996 85.348 C 27.775999999999996 87.447 31.146999999999995 87.447 33.132999999999996 85.348 L 52.955 64.42 C 54.945 62.321 54.725 58.952 52.571 56.854 L 50.224 54.64 L 45.875 58.901 C 46.984 60.011 47.033 61.841 45.945 62.984 z" stroke-linecap="round" />
</g>
<g transform="matrix(-0.52 -5 5.03 -0.53 342.8 465.89)"  >
<path style="stroke: none; stroke-width: 1; stroke-dasharray: none; stroke-linecap: butt; stroke-dashoffset: 0; stroke-linejoin: miter; stroke-miterlimit: 4; fill: rgb(142,239,151); fill-rule: nonzero; opacity: 1;" vector-effect="non-scaling-stroke"  transform=" translate(-39.33, -60.7)" d="M 20.339 48.515 C 16.584999999999997 48.515 13.558999999999997 45.491 13.558999999999997 41.737 C 13.558999999999997 37.984 16.584999999999997 34.96 20.339 34.96 C 32.719 34.96 43.866 39.945 51.988 48.012 C 60.054 56.134 65.095 67.28 65.095 79.663 C 65.095 83.414 62.015 86.44 58.263 86.44 C 54.507999999999996 86.44 51.485 83.414 51.485 79.663 C 51.485 71.036 48.010999999999996 63.306 42.353 57.646 C 36.753 52.046 28.966 48.515 20.339 48.515 z" stroke-linecap="round" />
</g>
<g transform="matrix(6.34 6.34 -6.34 6.34 539.97 535.76)"  >
<polygon style="stroke: none; stroke-width: 1; stroke-dasharray: none; stroke-linecap: butt; stroke-dashoffset: 0; stroke-linejoin: miter; stroke-miterlimit: 4; fill: rgb(45,192,194); fill-rule: nonzero; opacity: 1;" vector-effect="non-scaling-stroke"  points="-5.17,-0.44 0.56,4.97 5.17,0.45 -0.54,-4.97 " />
</g>
<g transform="matrix(6.34 6.34 -6.34 6.34 412 535.11)"  >
<path style="stroke: none; stroke-width: 1; stroke-dasharray: none; stroke-linecap: butt; stroke-dashoffset: 0; stroke-linejoin: miter; stroke-miterlimit: 4; fill: rgb(45,192,194); fill-rule: nonzero; opacity: 1;" vector-effect="non-scaling-stroke"  transform=" translate(-39.52, -59.71)" d="M 34.032 63.705 L 35.318 65.01599999999999 C 36.483 66.207 38.396 66.228 39.586999999999996 65.05999999999999 L 45.876999999999995 58.90199999999999 C 45.858 58.884999999999984 45.85099999999999 58.859999999999985 45.834999999999994 58.84299999999999 L 40.31399999999999 53.59599999999999 C 40.263999999999996 53.54799999999999 40.199999999999996 53.53499999999999 40.14699999999999 53.49199999999999 L 34.07799999999999 59.43699999999999 C 32.887 60.603 32.864 62.515 34.032 63.705 z" stroke-linecap="round" />
</g>
<g transform="matrix(6.34 6.34 -6.34 6.34 483.66 535.32)"  >
<path style="stroke: none; stroke-width: 1; stroke-dasharray: none; stroke-linecap: butt; stroke-dashoffset: 0; stroke-linejoin: miter; stroke-miterlimit: 4; fill: rgb(45,192,194); fill-rule: nonzero; opacity: 1;" vector-effect="non-scaling-stroke"  transform=" translate(-45.19, -54.07)" d="M 40.146 53.491 C 40.199 53.535 40.264 53.548 40.313 53.595 L 45.834 58.842 C 45.85 58.859 45.857000000000006 58.884 45.876000000000005 58.900999999999996 L 50.22500000000001 54.63999999999999 L 44.49100000000001 49.23499999999999 L 40.146 53.491 z" stroke-linecap="round" />
</g>
</svg>